HIERARCHY
ROOT hips
{
	OFFSET -0.003675 0.299928 -0.021708
	CHANNELS 6 Xposition Yposition Zposition Xrotation Yrotation Zrotation
	JOINT LowerBack
	{
		OFFSET 0.000919 0.177588 0.009275
		CHANNELS 3 Xrotation Yrotation Zrotation
		JOINT spine
		{
			OFFSET 0.000919 0.177588 0.009275
			CHANNELS 3 Xrotation Yrotation Zrotation
			JOINT chest
			{
				OFFSET 0.000456 0.100015 0.004638
				CHANNELS 3 Xrotation Yrotation Zrotation
				JOINT neck
				{
					OFFSET 0.000456 0.100015 0.004638
					CHANNELS 3 Xrotation Yrotation Zrotation
					JOINT head
					{
						OFFSET 0.000924 0.155147 0.009274
						CHANNELS 6 Xposition Yposition Zposition Xrotation Yrotation Zrotation
						End Site
						{
							OFFSET 0.000000 0.153400 0.000000
						}
					}
				}
				JOINT shoulder.L
				{
					OFFSET 0.019937 0.078966 0.057518
					CHANNELS 6 Xposition Yposition Zposition Yrotation Xrotation Zrotation
					JOINT upper_arm.L
					{
						OFFSET 0.177024 -0.020465 -0.095062
						CHANNELS 6 Xposition Yposition Zposition Xrotation Yrotation Zrotation
						JOINT forearm.L
						{
							OFFSET 0.247100 -0.135500 -0.061800
							CHANNELS 3 Xrotation Yrotation Zrotation
							JOINT hand.L
							{
								OFFSET 0.217000 -0.143000 0.039300
								CHANNELS 3 Xrotation Yrotation Zrotation
								JOINT palm.01.L
								{
									OFFSET 0.021770 -0.038291 0.012954
									CHANNELS 6 Xposition Yposition Zposition Yrotation Xrotation Zrotation
									JOINT f_index.01.L
									{
										OFFSET 0.053215 -0.044137 0.008236
										CHANNELS 3 Xrotation Yrotation Zrotation
										JOINT f_index.02.L
										{
											OFFSET 0.036108 -0.024723 -0.010656
											CHANNELS 3 Xrotation Yrotation Zrotation
											JOINT f_index.03.L
											{
												OFFSET 0.021342 -0.014948 -0.010846
												CHANNELS 3 Xrotation Yrotation Zrotation
												End Site
												{
													OFFSET 0.015600 -0.009860 -0.013421
												}
											}
										}
									}
									JOINT thumb.01.L
									{
										OFFSET -0.009090 -0.002348 -0.024223
										CHANNELS 6 Xposition Yposition Zposition Xrotation Yrotation Zrotation
										JOINT thumb.02.L
										{
											OFFSET 0.019713 -0.035076 -0.011120
											CHANNELS 3 Xrotation Yrotation Zrotation
											JOINT thumb.03.L
											{
												OFFSET 0.024877 -0.021748 -0.005176
												CHANNELS 3 Xrotation Yrotation Zrotation
												End Site
												{
													OFFSET 0.016125 -0.013029 -0.001569
												}
											}
										}
									}
								}
								JOINT palm.02.L
								{
									OFFSET 0.032823 -0.025104 0.012281
									CHANNELS 6 Xposition Yposition Zposition Yrotation Xrotation Zrotation
									JOINT f_middle.01.L
									{
										OFFSET 0.055723 -0.038469 0.008037
										CHANNELS 3 Xrotation Yrotation Zrotation
										JOINT f_middle.02.L
										{
											OFFSET 0.038167 -0.027473 -0.015582
											CHANNELS 3 Xrotation Yrotation Zrotation
											JOINT f_middle.03.L
											{
												OFFSET 0.021707 -0.016587 -0.017037
												CHANNELS 3 Xrotation Yrotation Zrotation
												End Site
												{
													OFFSET 0.014112 -0.010584 -0.014294
												}
											}
										}
									}
								}
								JOINT palm.03.L
								{
									OFFSET 0.039230 -0.011402 0.008390
									CHANNELS 6 Xposition Yposition Zposition Yrotation Xrotation Zrotation
									JOINT f_ring.01.L
									{
										OFFSET 0.061796 -0.031470 0.007910
										CHANNELS 3 Xrotation Yrotation Zrotation
										JOINT f_ring.02.L
										{
											OFFSET 0.033092 -0.023401 -0.019127
											CHANNELS 3 Xrotation Yrotation Zrotation
											JOINT f_ring.03.L
											{
												OFFSET 0.021392 -0.015362 -0.017824
												CHANNELS 3 Xrotation Yrotation Zrotation
												End Site
												{
													OFFSET 0.008670 -0.007297 -0.014686
												}
											}
										}
									}
								}
								JOINT palm.04.L
								{
									OFFSET 0.043417 0.002450 0.002889
									CHANNELS 6 Xposition Yposition Zposition Yrotation Xrotation Zrotation
									JOINT f_pinky.01.L
									{
										OFFSET 0.069986 -0.026156 0.003627
										CHANNELS 3 Xrotation Yrotation Zrotation
										JOINT f_pinky.02.L
										{
											OFFSET 0.018520 -0.012813 -0.016429
											CHANNELS 3 Xrotation Yrotation Zrotation
											JOINT f_pinky.03.L
											{
												OFFSET 0.013822 -0.009796 -0.014947
												CHANNELS 3 Xrotation Yrotation Zrotation
												End Site
												{
													OFFSET 0.007238 -0.006103 -0.011657
												}
											}
										}
									}
								}
							}
						}
					}
				}
				JOINT shoulder.R
				{
					OFFSET -0.016662 0.078957 0.057696
					CHANNELS 6 Xposition Yposition Zposition Yrotation Xrotation Zrotation
					JOINT upper_arm.R
					{
						OFFSET -0.176972 -0.020537 -0.095144
						CHANNELS 6 Xposition Yposition Zposition Xrotation Yrotation Zrotation
						JOINT forearm.R
						{
							OFFSET -0.247100 -0.135500 -0.061800
							CHANNELS 3 Xrotation Yrotation Zrotation
							JOINT hand.R
							{
								OFFSET -0.217000 -0.143000 0.039300
								CHANNELS 3 Xrotation Yrotation Zrotation
								JOINT palm.01.R
								{
									OFFSET -0.021773 -0.038278 0.012988
									CHANNELS 6 Xposition Yposition Zposition Yrotation Xrotation Zrotation
									JOINT f_index.01.R
									{
										OFFSET -0.053212 -0.044139 0.008249
										CHANNELS 3 Xrotation Yrotation Zrotation
										JOINT f_index.02.R
										{
											OFFSET -0.036049 -0.024835 -0.010634
											CHANNELS 3 Xrotation Yrotation Zrotation
											JOINT f_index.03.R
											{
												OFFSET -0.021371 -0.014881 -0.010866
												CHANNELS 3 Xrotation Yrotation Zrotation
												End Site
												{
													OFFSET -0.015584 -0.009883 -0.013422
												}
											}
										}
									}
									JOINT thumb.01.R
									{
										OFFSET 0.009113 -0.002381 -0.024211
										CHANNELS 6 Xposition Yposition Zposition Xrotation Yrotation Zrotation
										JOINT thumb.02.R
										{
											OFFSET -0.019694 -0.035097 -0.011088
											CHANNELS 3 Xrotation Yrotation Zrotation
											JOINT thumb.03.R
											{
												OFFSET -0.024867 -0.021762 -0.005168
												CHANNELS 3 Xrotation Yrotation Zrotation
												End Site
												{
													OFFSET -0.016120 -0.013036 -0.001565
												}
											}
										}
									}
								}
								JOINT palm.02.R
								{
									OFFSET -0.032828 -0.025095 0.012286
									CHANNELS 6 Xposition Yposition Zposition Yrotation Xrotation Zrotation
									JOINT f_middle.01.R
									{
										OFFSET -0.055721 -0.038472 0.008040
										CHANNELS 3 Xrotation Yrotation Zrotation
										JOINT f_middle.02.R
										{
											OFFSET -0.038101 -0.027593 -0.015557
											CHANNELS 3 Xrotation Yrotation Zrotation
											JOINT f_middle.03.R
											{
												OFFSET -0.021730 -0.016530 -0.017054
												CHANNELS 3 Xrotation Yrotation Zrotation
												End Site
												{
													OFFSET -0.014096 -0.010608 -0.014293
												}
											}
										}
									}
								}
								JOINT palm.03.R
								{
									OFFSET -0.039192 -0.011488 0.008390
									CHANNELS 6 Xposition Yposition Zposition Yrotation Xrotation Zrotation
									JOINT f_ring.01.R
									{
										OFFSET -0.061839 -0.031387 0.007876
										CHANNELS 3 Xrotation Yrotation Zrotation
										JOINT f_ring.02.R
										{
											OFFSET -0.033068 -0.023437 -0.019125
											CHANNELS 3 Xrotation Yrotation Zrotation
											JOINT f_ring.03.R
											{
												OFFSET -0.021371 -0.015393 -0.017822
												CHANNELS 3 Xrotation Yrotation Zrotation
												End Site
												{
													OFFSET -0.008654 -0.007321 -0.014684
												}
											}
										}
									}
								}
								JOINT palm.04.R
								{
									OFFSET -0.043421 0.002443 0.002845
									CHANNELS 6 Xposition Yposition Zposition Yrotation Xrotation Zrotation
									JOINT f_pinky.01.R
									{
										OFFSET -0.069983 -0.026169 0.003599
										CHANNELS 3 Xrotation Yrotation Zrotation
										JOINT f_pinky.02.R
										{
											OFFSET -0.018501 -0.012842 -0.016428
											CHANNELS 3 Xrotation Yrotation Zrotation
											JOINT f_pinky.03.R
											{
												OFFSET -0.013806 -0.009821 -0.014946
												CHANNELS 3 Xrotation Yrotation Zrotation
												End Site
												{
													OFFSET -0.007226 -0.006121 -0.011655
												}
											}
										}
									}
								}
							}
						}
					}
				}
			}
		}
	}
	JOINT pelvis.L
	{
		OFFSET 0.000000 0.000000 0.000000
		CHANNELS 6 Xposition Yposition Zposition Xrotation Yrotation Zrotation
		JOINT thigh.L
		{
			OFFSET 0.101675 0.001054 -0.000000
			CHANNELS 3 Xrotation Yrotation Zrotation
			JOINT shin.L
			{
				OFFSET 0.000000 -0.534800 0.041000
				CHANNELS 3 Xrotation Yrotation Zrotation
				JOINT foot.L
				{
					OFFSET 0.000000 -0.452000 -0.044800
					CHANNELS 3 Xrotation Yrotation Zrotation
					JOINT toe.L
					{
						OFFSET -0.000000 -0.068500 0.109600
						CHANNELS 3 Xrotation Yrotation Zrotation
						End Site
						{
							OFFSET -0.000000 0.000000 0.067200
						}
					}
				}
				JOINT heel.L
				{
					OFFSET 0.000000 -0.452000 -0.044800
					CHANNELS 3 Xrotation Yrotation Zrotation
					JOINT heel.02.L
					{
						OFFSET -0.038000 -0.085200 0.016200
						CHANNELS 6 Xposition Yposition Zposition Xrotation Yrotation Zrotation
						End Site
						{
							OFFSET 0.080000 -0.000000 0.000000
						}
					}
				}
			}
		}
	}
	JOINT pelvis.R
	{
		OFFSET 0.000000 0.000000 0.000000
		CHANNELS 6 Xposition Yposition Zposition Xrotation Yrotation Zrotation
		JOINT thigh.R
		{
			OFFSET -0.094325 0.001054 0.000000
			CHANNELS 3 Xrotation Yrotation Zrotation
			JOINT shin.R
			{
				OFFSET 0.000000 -0.534800 0.041000
				CHANNELS 3 Xrotation Yrotation Zrotation
				JOINT foot.R
				{
					OFFSET 0.000000 -0.452000 -0.044800
					CHANNELS 3 Xrotation Yrotation Zrotation
					JOINT toe.R
					{
						OFFSET -0.000000 -0.068500 0.109600
						CHANNELS 3 Xrotation Yrotation Zrotation
						End Site
						{
							OFFSET -0.000000 0.000000 0.067200
						}
					}
				}
				JOINT heel.R
				{
					OFFSET 0.000000 -0.452000 -0.044800
					CHANNELS 3 Xrotation Yrotation Zrotation
					JOINT heel.02.R
					{
						OFFSET 0.038000 -0.085200 0.016200
						CHANNELS 6 Xposition Yposition Zposition Xrotation Yrotation Zrotation
						End Site
						{
							OFFSET -0.080000 0.000000 -0.000000
						}
					}
				}
			}
		}
	}
}
MOTION
Frames: 4
Frame Time: 0.041667
-0.012007 0.225801 -0.045757 5.280822 0.396671 95.650488 -0.000001 0.000000 -0.000000 -0.000000 -0.000001 -0.000000 0.000000 0.000000 -0.000000 -0.000000 -0.000001 -0.000001 0.000924 0.155147 0.009274 33.648063 -0.053567 -23.597692 0.019937 0.078966 0.057518 2.363553 0.162918 27.060296 0.177025 -0.020465 -0.095062 44.933806 18.173533 -69.120340 -50.619147 -10.942405 -49.351546 0.000001 0.000001 0.000003 0.021770 -0.038291 0.012954 -0.000002 -0.000002 -0.000004 -0.000001 -0.000003 -0.000000 -0.000001 -0.000007 0.000010 -0.000002 -0.000000 -0.000000 -0.009090 -0.002348 -0.024224 -0.000001 -0.000001 0.000003 0.000001 0.000000 0.000001 0.000001 -0.000003 0.000003 0.032823 -0.025104 0.012281 -0.000003 -0.000002 -0.000001 0.000000 0.000003 -0.000003 -0.000002 -0.000006 0.000001 -0.000001 -0.000003 0.000000 0.039230 -0.011402 0.008390 0.000001 -0.000003 0.000001 0.000002 0.000003 -0.000002 -0.000000 0.000003 0.000001 0.000003 -0.000002 0.000003 0.043417 0.002450 0.002889 -0.000004 -0.000003 -0.000002 -0.000003 0.000001 -0.000005 -0.000003 0.000000 0.000001 0.000002 -0.000001 -0.000002 -0.016662 0.078957 0.057696 -21.137776 5.633948 -31.650055 -0.176972 -0.020537 -0.095144 20.079346 -23.608262 41.289870 -45.610193 -12.699329 83.393441 -0.000003 0.000003 -0.000000 -0.021773 -0.038278 0.012988 0.000001 -0.000000 0.000000 -0.000004 -0.000000 0.000002 -0.000002 0.000001 -0.000004 -0.000002 0.000003 -0.000003 0.009113 -0.002381 -0.024211 -0.000000 -0.000002 -0.000001 -0.000000 0.000000 -0.000001 -0.000001 -0.000003 -0.000003 -0.032828 -0.025095 0.012286 0.000004 0.000002 -0.000003 0.000004 0.000005 0.000001 -0.000001 0.000002 -0.000004 -0.000005 0.000007 -0.000000 -0.039192 -0.011488 0.008390 0.000001 -0.000000 0.000001 0.000002 0.000003 -0.000008 -0.000001 -0.000001 0.000002 0.000002 0.000004 -0.000000 -0.043421 0.002443 0.002845 0.000003 0.000002 -0.000003 -0.000001 0.000007 -0.000001 -0.000004 -0.000004 -0.000003 -0.000002 -0.000000 0.000001 0.000000 0.000000 -0.000000 -2.116346 0.352668 -4.907942 -84.523673 -0.367280 -0.679737 127.265330 0.358684 -3.618935 -0.000003 0.000000 0.000000 0.000001 0.000000 -0.000000 -0.000002 0.000000 0.000000 -0.038000 -0.085200 0.016200 0.000003 -0.000000 -0.000000 0.000000 0.000000 0.000000 -2.058445 0.348299 -3.674111 -87.930182 1.537818 15.400828 130.911804 -0.081874 0.829281 -0.000007 0.000001 0.000000 0.000003 0.000001 -0.000000 0.000002 -0.000000 -0.000000 0.038000 -0.085200 0.016200 -0.000006 0.000000 -0.000000 
-0.012502 0.225196 -0.045055 7.218623 -0.239947 95.952171 -0.000000 0.000000 0.000000 -0.000001 0.000000 0.000000 0.000000 0.000000 0.000000 0.000000 0.000000 0.000000 0.000924 0.155147 0.009274 32.136709 -0.057342 -24.995742 0.019937 0.078966 0.057518 2.749285 0.048341 26.243335 0.177025 -0.020465 -0.095062 43.700496 18.940316 -67.978578 -47.124781 -12.450542 -47.049427 0.000001 0.000001 -0.000001 0.021770 -0.038291 0.012954 0.000001 -0.000000 -0.000002 -0.000005 0.000000 -0.000000 0.000001 -0.000002 0.000008 0.000003 0.000004 -0.000000 -0.009090 -0.002348 -0.024224 -0.000000 0.000000 -0.000003 -0.000001 0.000003 0.000003 0.000001 0.000002 -0.000001 0.032823 -0.025104 0.012281 -0.000001 -0.000001 0.000002 -0.000001 -0.000003 -0.000005 -0.000000 -0.000003 0.000001 0.000000 0.000001 0.000001 0.039230 -0.011402 0.008390 0.000000 -0.000001 0.000003 0.000002 -0.000003 0.000003 -0.000002 0.000005 0.000003 -0.000000 -0.000002 0.000003 0.043417 0.002450 0.002889 -0.000004 0.000001 -0.000000 -0.000003 -0.000001 -0.000000 0.000001 0.000002 0.000000 -0.000004 0.000005 -0.000000 -0.016662 0.078957 0.057696 -20.183656 5.538427 -31.997643 -0.176972 -0.020537 -0.095144 19.051773 -21.013634 45.426601 -48.743980 -5.721361 72.102072 -0.000000 -0.000001 0.000004 -0.021773 -0.038278 0.012988 0.000002 0.000002 -0.000003 0.000000 0.000005 0.000002 0.000002 -0.000002 0.000001 0.000001 -0.000002 0.000001 0.009113 -0.002381 -0.024212 -0.000000 0.000001 0.000001 0.000000 0.000001 0.000000 0.000001 0.000000 0.000001 -0.032828 -0.025095 0.012286 -0.000002 -0.000000 -0.000005 -0.000000 0.000005 -0.000004 -0.000003 -0.000003 -0.000003 -0.000003 0.000003 -0.000004 -0.039192 -0.011488 0.008390 -0.000000 0.000003 -0.000000 0.000002 0.000006 -0.000002 -0.000003 -0.000003 0.000003 0.000004 -0.000000 0.000002 -0.043421 0.002443 0.002845 -0.000001 0.000001 0.000002 -0.000001 0.000000 0.000001 -0.000001 -0.000003 0.000000 -0.000001 0.000001 0.000001 0.000000 0.000000 0.000000 -2.095357 0.133039 -2.465139 -81.534509 -0.318892 -0.054952 124.904407 0.415286 -4.191341 -0.000005 0.000000 -0.000000 0.000001 -0.000000 0.000000 0.000000 -0.000000 0.000000 -0.038000 -0.085200 0.016200 -0.000000 0.000000 -0.000000 0.000000 0.000000 0.000000 -2.045756 0.131416 -1.231068 -83.910083 1.583628 16.017010 132.993345 -0.337042 3.405727 0.000003 0.000000 0.000001 0.000003 0.000001 -0.000000 0.000007 -0.000000 -0.000000 0.038000 -0.085200 0.016200 -0.000002 -0.000001 -0.000000 
-0.017393 0.224309 -0.043862 8.143442 6.045086 96.595486 -0.000001 -0.000000 -0.000000 0.000000 -0.000000 -0.000000 0.000000 -0.000001 0.000000 0.000000 -0.000001 0.000001 0.000924 0.155147 0.009274 35.793702 -0.089429 -35.954724 0.019937 0.078966 0.057518 4.102031 -4.135474 17.524741 0.177024 -0.020465 -0.095062 37.286634 26.851405 -57.051788 -60.915862 -49.615747 -25.062577 0.000003 0.000002 -0.000001 0.021770 -0.038291 0.012954 0.000002 -0.000000 0.000001 -0.000001 -0.000001 0.000001 -0.000001 0.000001 0.000003 0.000004 0.000001 -0.000002 -0.009090 -0.002348 -0.024223 0.000004 0.000001 -0.000003 -0.000001 -0.000001 0.000001 0.000000 -0.000000 -0.000002 0.032823 -0.025104 0.012281 0.000000 0.000001 0.000004 -0.000005 0.000004 -0.000003 -0.000003 0.000001 0.000002 -0.000004 -0.000003 0.000003 0.039230 -0.011402 0.008390 0.000002 -0.000001 0.000009 -0.000001 -0.000003 -0.000000 -0.000001 0.000007 -0.000001 0.000003 -0.000000 0.000000 0.043417 0.002450 0.002889 0.000001 -0.000002 -0.000005 -0.000001 -0.000003 -0.000000 -0.000001 0.000003 0.000001 -0.000001 0.000000 -0.000004 -0.016662 0.078957 0.057696 -16.439704 2.944155 -29.715257 -0.176972 -0.020537 -0.095144 20.176037 -22.847726 42.530970 -42.734243 -4.033274 74.112368 -0.000001 0.000000 0.000000 -0.021773 -0.038278 0.012988 -0.000001 -0.000001 -0.000003 0.000000 0.000004 -0.000001 -0.000002 -0.000002 0.000001 -0.000003 0.000002 -0.000003 0.009114 -0.002381 -0.024211 0.000002 0.000000 -0.000001 -0.000002 -0.000003 -0.000002 0.000001 -0.000001 -0.000003 -0.032828 -0.025095 0.012286 0.000003 0.000003 0.000001 -0.000001 0.000001 0.000002 -0.000000 -0.000003 0.000001 0.000003 -0.000003 -0.000004 -0.039192 -0.011488 0.008390 -0.000000 0.000000 -0.000000 0.000000 0.000002 -0.000003 0.000001 0.000001 -0.000000 -0.000001 0.000000 -0.000004 -0.043421 0.002443 0.002845 -0.000001 0.000001 -0.000001 -0.000003 0.000007 -0.000003 -0.000004 -0.000003 -0.000003 0.000001 0.000000 0.000002 -0.000000 0.000000 -0.000000 -2.328163 -0.354634 2.851656 -77.089149 0.060455 4.910182 127.550750 0.433150 -4.372129 0.000007 0.000001 0.000000 -0.000004 -0.000000 0.000000 0.000012 0.000001 0.000001 -0.038000 -0.085200 0.016200 -0.000001 0.000000 -0.000000 -0.000000 0.000000 -0.000000 -2.291288 -0.352415 4.086065 -74.331644 1.479980 14.662154 111.619368 0.796917 -8.064704 0.000002 0.000001 -0.000001 -0.000006 0.000001 -0.000001 0.000002 0.000001 0.000000 0.038000 -0.085200 0.016200 -0.000004 0.000001 0.000000 
-0.012631 0.242431 -0.044706 34.603429 35.191156 89.051241 0.000002 -0.000003 0.000001 0.000002 -0.000005 0.000003 0.000006 -0.000003 0.000004 0.000002 -0.000002 0.000007 0.000924 0.155148 0.009274 -11.575257 -0.035443 -43.237030 0.019937 0.078966 0.057518 4.497871 -3.554779 22.816235 0.177024 -0.020466 -0.095062 -15.399874 18.910871 -102.715950 -6.276001 -8.378958 -3.681642 -0.000001 -0.000000 -0.000002 0.021770 -0.038291 0.012954 0.000000 0.000003 0.000003 -0.000000 -0.000000 -0.000002 -0.000001 -0.000000 0.000007 -0.000000 0.000003 -0.000002 -0.009090 -0.002348 -0.024223 0.000001 -0.000001 -0.000003 0.000001 0.000000 -0.000000 0.000000 -0.000000 -0.000002 0.032823 -0.025104 0.012281 -0.000000 0.000002 0.000005 -0.000001 0.000003 -0.000005 -0.000002 0.000000 0.000001 -0.000003 -0.000001 0.000003 0.039230 -0.011402 0.008390 0.000001 0.000001 0.000003 0.000001 -0.000000 -0.000002 -0.000003 0.000001 0.000003 0.000002 -0.000002 0.000003 0.043417 0.002450 0.002889 -0.000000 0.000002 -0.000002 -0.000000 -0.000003 -0.000000 -0.000003 -0.000006 0.000002 -0.000001 0.000000 -0.000000 -0.016662 0.078957 0.057696 13.753341 -0.811475 -37.242778 -0.176972 -0.020537 -0.095144 -36.629294 -21.413193 71.334031 12.493040 -20.528306 -1.097137 0.000003 0.000003 -0.000004 -0.021773 -0.038278 0.012988 -0.000000 0.000000 -0.000003 -0.000001 0.000003 0.000002 0.000003 -0.000002 -0.000005 -0.000001 -0.000001 -0.000000 0.009114 -0.002381 -0.024211 -0.000000 -0.000001 0.000003 0.000000 -0.000003 0.000002 -0.000002 -0.000003 0.000001 -0.032828 -0.025095 0.012286 -0.000001 -0.000000 -0.000001 0.000000 0.000000 -0.000001 -0.000000 0.000000 -0.000002 -0.000003 0.000006 -0.000005 -0.039192 -0.011488 0.008390 -0.000001 0.000000 0.000001 0.000002 0.000005 0.000000 0.000003 -0.000004 -0.000002 0.000004 0.000000 -0.000003 -0.043421 0.002443 0.002845 -0.000003 0.000001 0.000004 -0.000003 0.000005 -0.000001 -0.000000 -0.000001 0.000005 -0.000002 0.000002 -0.000001 0.000000 0.000000 -0.000000 -2.652293 0.631722 -7.297530 -134.575272 -1.221261 -13.150909 142.308112 1.570945 -16.060720 -0.000002 0.000001 -0.000001 -0.000003 0.000001 -0.000001 0.000002 0.000000 0.000003 -0.038000 -0.085200 0.016200 0.000002 0.000000 0.000001 0.000000 0.000000 -0.000000 -2.570090 0.622063 -6.064239 -125.042595 2.118743 24.383268 135.473961 1.382672 -14.091230 0.000003 0.000001 -0.000000 0.000002 0.000000 0.000002 0.000007 0.000001 0.000000 0.038000 -0.085200 0.016200 -0.000001 -0.000001 -0.000001 
